<svg xmlns="http://www.w3.org/2000/svg" width="800" height="600" viewBox="0 0 800 600" role="img" aria-label="Sneakers">
  <defs>
    <linearGradient id="bg" x1="0" x2="1" y1="0" y2="1">
      <stop offset="0" stop-color="#f59e0b"/>
      <stop offset="1" stop-color="#ef4444"/>
    </linearGradient>
  </defs>
  <rect width="800" height="600" rx="48" fill="url(#bg)"/>
  <path d="M170 360c120 0 170-120 250-120 80 0 110 90 210 90 35 0 60-12 80-22v70c0 35-28 63-63 63H220c-28 0-50-22-50-50v-31z" fill="rgba(255,255,255,0.92)"/>
  <path d="M220 420h430" stroke="rgba(15,23,42,0.14)" stroke-width="10" stroke-linecap="round"/>
  <g fill="rgba(15,23,42,0.18)">
    <circle cx="330" cy="330" r="8"/>
    <circle cx="360" cy="322" r="8"/>
    <circle cx="390" cy="315" r="8"/>
    <circle cx="420" cy="310" r="8"/>
  </g>
  <text x="48" y="88" font-family="Inter, system-ui, -apple-system, Segoe UI, sans-serif" font-size="28" fill="rgba(255,255,255,0.92)" font-weight="700">
    NovaMart " Footwear
  </text>
  <text x="48" y="126" font-family="Inter, system-ui, -apple-system, Segoe UI, sans-serif" font-size="18" fill="rgba(255,255,255,0.78)">
    Sample product image
  </text>
</svg>

